<svg xmlns="http://www.w3.org/2000/svg" xmlns:xlink="http://www.w3.org/1999/xlink" 
viewBox="0 0 324.77 385.02">
    <defs>
        <style>
            .cls-1 {
                fill: url(#linear-gradient);
            }

            .cls-2 {
                fill: url(#linear-gradient-2);
            }

            .cls-3 {
                fill: url(#linear-gradient-3);
            }

            .cls-4 {
                fill: #3aaddd;
            }

            .cls-5 {
                fill: #1f4b95;
            }

            .cls-6 {
                fill: #c11827;
            }

            .cls-7 {
                opacity: 0.5;
                fill: url(#linear-gradient-4);
            }

            .cls-8 {
                fill: #ee334e;
            }

            .cls-9 {
                fill: #00a651;
            }

            .cls-10 {
                fill: #0a0205;
            }

            .cls-11 {
                fill: #fcb131;
            }

            .cls-12 {
                fill: #0081c8;
            }

            .cls-13 {
                fill: #231815;
            }
        </style>
        <linearGradient id="linear-gradient" x1="104.78" y1="97.31" x2="216.95" y2="58.47"
            gradientUnits="userSpaceOnUse">
            <stop offset="0" stop-color="#fccf00" />
            <stop offset="0.13" stop-color="#faca01" />
            <stop offset="0.27" stop-color="#f6bb04" />
            <stop offset="0.44" stop-color="#eea309" />
            <stop offset="0.61" stop-color="#e38210" />
            <stop offset="0.79" stop-color="#d5561a" />
            <stop offset="0.97" stop-color="#c42225" />
            <stop offset="1" stop-color="#c11827" />
        </linearGradient>
        <linearGradient id="linear-gradient-2" x1="51.32" y1="98.7" x2="261.18" y2="97.61"
            gradientUnits="userSpaceOnUse">
            <stop offset="0" stop-color="#1c50a1" />
            <stop offset="0.1" stop-color="#1957a7" />
            <stop offset="0.25" stop-color="#116ab6" />
            <stop offset="0.42" stop-color="#0488d0" />
            <stop offset="0.46" stop-color="#0091d7" />
            <stop offset="0.52" stop-color="#1d9edc" />
            <stop offset="0.64" stop-color="#50b4e6" />
            <stop offset="0.75" stop-color="#78c6ed" />
            <stop offset="0.85" stop-color="#95d3f3" />
            <stop offset="0.94" stop-color="#a7daf6" />
            <stop offset="1" stop-color="#adddf7" />
        </linearGradient>
        <linearGradient id="linear-gradient-3" x1="199.68" y1="117.29" x2="78.88" y2="124.68"
            gradientUnits="userSpaceOnUse">
            <stop offset="0" stop-color="#6ec8f2" />
            <stop offset="0.12" stop-color="#6fc8ef" />
            <stop offset="0.2" stop-color="#72c8e6" />
            <stop offset="0.27" stop-color="#77c8d6" />
            <stop offset="0.34" stop-color="#7dc8c0" />
            <stop offset="0.4" stop-color="#86c8a3" />
            <stop offset="0.43" stop-color="#8bc894" />
            <stop offset="0.52" stop-color="#a1c978" />
            <stop offset="0.75" stop-color="#d2cc37" />
            <stop offset="0.91" stop-color="#f0ce0f" />
            <stop offset="1" stop-color="#fccf00" />
        </linearGradient>
        <linearGradient id="linear-gradient-4" x1="59.11" y1="105.38" x2="161.87" y2="99.64"
            gradientUnits="userSpaceOnUse">
            <stop offset="0" stop-color="#1c50a1" />
            <stop offset="0.54" stop-color="#00aeeb" />
            <stop offset="0.63" stop-color="#37bced" />
            <stop offset="0.72" stop-color="#6ccaef" />
            <stop offset="0.81" stop-color="#95d6f0" />
            <stop offset="0.89" stop-color="#b3ddf1" />
            <stop offset="0.95" stop-color="#c5e2f2" />
            <stop offset="1" stop-color="#cce4f2" />
        </linearGradient>
    </defs>
    <title>Asset 1</title>
    <g id="Layer_2" data-name="Layer 2">
        <g id="图层_1" data-name="图层 1">
            <path class="cls-1"
                d="M51.41,116.1l12.51,14.67s99.72-85.14,190.87-73.86l-.06-.73c-.48-.21-14.38-4.4-37.66-4.4-36.92,0-97.46,10.55-165.66,64.32" />
            <path class="cls-2"
                d="M260.59,65.5h0c-5.73,15.58-27.62,13-57.34,10.49-16.3-1.39-34.94-2.79-54.57-1.2C97.05,79,51.41,116.1,51.41,116.1l12.51,14.67s23.69-20.28,59.4-31.5c18.87-5.92,44.43-2.55,67.36.81,21.21,3.11,40.17,6.23,49.54,2,9.18-5,19.17-21.3,20.79-36.6l-.42,0" />
            <path class="cls-3"
                d="M69.1,130.61c41.09-16.21,85.24.71,85.24.71l35.3-12.5a141.41,141.41,0,0,0-49-8.92c-39.76,0-66.95,17.61-71.57,20.71" />
            <path class="cls-4"
                d="M104,147.16c40.54-28.75,86.4-28.34,86.4-28.34C145.43,138,128.46,169,128.46,169L104,147.15" />
            <path class="cls-5"
                d="M187.24,42c-20.6-1.56-41.93-.1-56.42,1.28C91.7,68.76,69,101.34,69,101.34,129.93,51.69,187.24,42,187.24,42" />
            <path class="cls-6"
                d="M173.56,22.44a136.24,136.24,0,0,0-35.83-3.63,235.19,235.19,0,0,0-24.86,26.6s7-1.09,17.95-2.12c14.49-1.38,35.82-2.84,56.42-1.28Z" />
            <path class="cls-5"
                d="M99.19,25.81l13.68,19.6a235.19,235.19,0,0,1,24.86-26.6c7.76-7,16.68-14,25.79-18.81,0,0-41.47,7.16-64.33,25.81" />
            <path class="cls-5"
                d="M169.53,210.46C118.1,186,104,147.15,104,147.15c27.18,21.75,85.36,41.92,85.36,41.92s-15.12,23.61-19.81,21.39" />
            <path class="cls-7"
                d="M156.75,74.29c-2.68.12-5.39.28-8.12.5-45.8,3.71-86.92,33.41-95.56,40l-1.66,1.3,12.51,14.67,0,0c1-.86,40.83-34.57,92.81-56.46" />
            <path class="cls-8"
                d="M223.61,293.87a31,31,0,0,0-30.83,28.8,29,29,0,0,1,5,.87,25.87,25.87,0,1,1,25.79,27.65,25.2,25.2,0,0,1-2.75-.14A26,26,0,0,1,198.05,329a26,26,0,0,0-5.26-1.13,31.16,31.16,0,0,0,23,27.51,29.08,29.08,0,0,0,5.06.87c.89.08,1.8.12,2.72.12a31.24,31.24,0,0,0,0-62.47" />
            <path class="cls-9"
                d="M215.9,355.36a25.86,25.86,0,1,1-25.8-27.68c.93,0,1.85.07,2.75.16a26.52,26.52,0,0,1,5.28,1.13,26,26,0,0,1,17.52,20.93,26.25,26.25,0,0,0,5.28,1.15,31.22,31.22,0,0,0-23.06-27.52,31.76,31.76,0,0,0-5-.86c-.91-.08-1.81-.13-2.73-.13a31.24,31.24,0,1,0,30.84,33.69,32.57,32.57,0,0,1-5-.87" />
            <path
                d="M187.48,322.65a31,31,0,1,0-30.87,33.69c.89,0,1.76,0,2.63-.12-.08-.79-.11-1.63-.11-2.44a27.06,27.06,0,0,1,.14-2.72,26.11,26.11,0,1,1,23.14-27.56c0,.53.06,1.06.06,1.61a28,28,0,0,1-.28,3.81,26,26,0,0,1-17.67,21,26.55,26.55,0,0,0-.28,3.83c0,.53,0,1.06,0,1.61a31.2,31.2,0,0,0,23.16-27.55c.08-.92.13-1.81.13-2.73s0-1.63-.1-2.46" />
            <path class="cls-10" d="M125.7,322.67a28.34,28.34,0,0,1,5.07.93" />
            <path class="cls-11"
                d="M148.61,355.3a25.86,25.86,0,1,1-25.79-27.61,25.54,25.54,0,0,1,2.91.18A24.88,24.88,0,0,1,131,329a26.09,26.09,0,0,1,17.38,20.81,24.25,24.25,0,0,0,5.25,1.18,30.94,30.94,0,0,0-27.93-28.36c-.94-.09-1.91-.13-2.88-.13a31.24,31.24,0,1,0,30.83,33.68,28.16,28.16,0,0,1-5-.92" />
            <path class="cls-12"
                d="M120.19,322.65a31,31,0,1,0-30.87,33.69c.88,0,1.76,0,2.63-.12-.06-.79-.1-1.63-.1-2.44s0-1.83.11-2.72a25.5,25.5,0,0,1-2.64.13,26.09,26.09,0,1,1,25.81-27.69c0,.53.06,1.06.06,1.61a26.48,26.48,0,0,1-.29,3.81,26,26,0,0,1-17.67,21,28.07,28.07,0,0,0-.27,3.83c0,.53,0,1.06,0,1.61a31.19,31.19,0,0,0,23.16-27.55c.08-.92.12-1.81.12-2.73s0-1.63-.09-2.46" />
            <path
                d="M60.07,255.31l-1.9-5.56a54.06,54.06,0,0,0-12,.05c.62-1.81,1.36-3.84,2.3-6.37a74.06,74.06,0,0,1,14.25-.78L61,236.85a114.75,114.75,0,0,0-16.11,0v.05a1.76,1.76,0,0,0-.7.11,201.32,201.32,0,0,0-9.44,26.87l4.05,5.94H41.4v0c7.8-.06,8.51-.27,17.71-1l-2-6.19a59.69,59.69,0,0,1-14.5.85c.54-2.7,1-4.82,1.49-6.72A95.32,95.32,0,0,1,60.07,255.31Z" />
            <path
                d="M28,249.13a11.3,11.3,0,0,0,4.63-6.28l-1.8-5.68a.61.61,0,0,0-.05.12l0-.12A51.76,51.76,0,0,0,0,236.79l4.31,6.35a39.79,39.79,0,0,1,5.59-1.56,186.67,186.67,0,0,0-8.64,27.8c28.44,4.24,32.13-11.89,32.13-11.89l-1.91-5.66A8.27,8.27,0,0,0,28,249.13ZM10.89,262.6c1.26-5.24,3.33-13.08,6.31-21.85a48.74,48.74,0,0,1,10.41.83C23.1,245.75,16.43,247,16.43,247l1.9,5.65s6.66,0,11,3C24.8,261.67,16.74,262.68,10.89,262.6Z" />
            <path d="M78.84,236.79H72.18a184.94,184.94,0,0,0-11,33h8.15A230.69,230.69,0,0,1,78.84,236.79Z" />
            <path d="M100.75,236.79a184.94,184.94,0,0,0-11,33h8.15a232.27,232.27,0,0,1,9.55-33Z" />
            <path
                d="M133.44,236.79a188.46,188.46,0,0,0-7.63,20.42,91.42,91.42,0,0,1-4.4-20.42h-6.66a185.34,185.34,0,0,0-11,33h8.15s1.55-8,4.92-19.21a95,95,0,0,0,5.61,19.21h8.15a232.27,232.27,0,0,1,9.55-33Z" />
            <path
                d="M306.18,261c-4.72-1.84-10.37-1.95-15.74-1.31A80.61,80.61,0,0,0,300.66,245L298.34,238c-5.67-1.34-15.29-1-22.86,3.2l2.32,6.9a35.15,35.15,0,0,1,15.08-3.73c-2.3,3.9-7.31,10.05-18.19,18l-2.53-2.4a30.53,30.53,0,0,0-11.93-1.6,81.74,81.74,0,0,0,10.31-15.52l-2.3-6.92c-5.7-1.21-15-1-22.48,3.36l2.48,7s7.1-4.64,15.25-4.71c-2.28,4.28-7.83,11.58-21.37,21.28l-.2.09,5.69,8.13a48.65,48.65,0,0,1,23.68-6.32l-.14.05,5.52,8.25s19.54-11.67,38.78-5.11Z" />
            <path
                d="M239.43,239.33s-7.12-2.27-7.12-2.27a29.75,29.75,0,0,0-13.81,9.19c-5.55,6.67-5.59,12.48-4.23,16.66l-1.47-1.44a30.44,30.44,0,0,0-12-1.76,83.2,83.2,0,0,0,10.71-15.64l-2.32-6.92a34.87,34.87,0,0,0-23,3.6l2.34,6.91c2.3-1.54,9.47-3.91,15.63-4.4-2.43,4.29-8.14,11.4-21.5,20.71l-.18.08,5,7.37.56.83h0s13-7.76,27.9-5.66a16.58,16.58,0,0,0,2.48,3.11l7.7,2.33A22.64,22.64,0,0,0,240,262.84C250,247.74,239.43,239.33,239.43,239.33Zm-6.65,21.15a31.39,31.39,0,0,1-9.44,7c-2.29-4.63-4.24-12.14,1.75-19.12a31.06,31.06,0,0,1,9.65-7C236.77,246.08,238.5,253.69,232.78,260.48Z" />
            <path
                d="M84.73,236.79S80.6,252,75.12,268.94c-1.86,5.78-4.61,9.28-7.8,10.52a9.15,9.15,0,0,1-4.95.24h0l8.26,3.2c8.51-1.33,11-7.94,12.8-12.67,2-5.29,9.46-33.44,9.46-33.44Z" />
            <path
                d="M168.41,243.64l-2.27-6.88c-20.79-.17-30.18,13.19-29.57,24.76a14.68,14.68,0,0,0,.45,3l3.17,4.65c3.41,2.15,9.05,1.2,16.14-3-1.81,3.24-4.4,6.13-8,6.93.21,0,5.7,2.82,7,2.24a22,22,0,0,0,11.91-17.39h0l-7.44-2.83,0,.05h0c-4.66,7.31-14.33,10.1-17.4,8.45C137.62,261,147.23,242.79,168.41,243.64Z" />
            <path class="cls-13" d="M315.77,238.84H314v-.64h4.32v.64h-1.78V244h-.76Z" />
            <path class="cls-13"
                d="M323.88,241.47c0-.81-.09-1.8-.09-2.52h0c-.21.68-.44,1.42-.74,2.22L322,244h-.57l-.95-2.78c-.28-.83-.5-1.57-.67-2.27h0c0,.73-.06,1.7-.11,2.59l-.15,2.5h-.72l.4-5.84h1l1,2.82c.24.72.44,1.36.59,2h0c.15-.59.36-1.23.62-2l1-2.82h1l.37,5.84H324Z" />
        </g>
    </g>
</svg>