<svg width="294" height="47" viewBox="0 0 294 47" fill="none" xmlns="http://www.w3.org/2000/svg">
<path d="M14.9409 0.349609C6.23175 0.349609 0.949768 2.40872 0.949768 2.40872L5.12539 8.21605L10.2079 6.87808C10.2079 6.87808 5.59059 17.6067 2.27236 32.7453C2.27236 32.7453 5.96618 33.3526 10.2835 33.3526C20.1341 33.3526 29.392 30.1039 32.0685 21.6431L30.1224 16.0161C30.1224 16.0161 28.509 14.3175 26.9199 13.8241C31.0683 11.1192 31.3128 7.95035 31.3128 7.95035L29.669 2.63647C29.669 2.63647 23.7866 0.349609 14.9409 0.349609ZM17.0665 5.98612C21.0303 5.98612 26.901 6.71677 26.901 6.71677C21.7217 10.9508 16.3202 11.9168 16.3202 11.9168L18.0679 17.1453C24.8398 17.1604 28.2897 20.0015 28.2897 20.0015C23.2638 27.0231 11.0582 26.4541 11.0582 26.4541C14.0988 14.6087 17.0665 5.98612 17.0665 5.98612Z" fill="#252A37"/>
<path d="M37.077 33.2987L33.2037 27.7191C37.1194 13.0586 42.0595 2.58072 42.0595 2.58072C49.5342 2.16962 57.6108 2.50019 57.6108 2.50019L59.2407 7.97539C59.2407 7.97539 51.7383 7.5534 46.0943 8.70004C46.0943 8.70004 45.1048 11.2082 43.9299 14.6583C50.113 14.0628 54.8586 14.6047 54.8586 14.6047L56.7557 19.6773C46.9375 20.0853 41.9259 21.1534 41.9259 21.1534L40.4563 27.4069C40.4563 27.4069 45.1505 28.0213 53.9501 26.6286L55.874 32.2917C55.874 32.2917 46.8938 33.2987 37.077 33.2987Z" fill="#252A37"/>
<path d="M58.067 33.0812L65.5869 33.0812C69.6018 14.8842 74.5144 2.37451 74.5144 2.37451L68.2037 2.37451C68.2037 2.37451 62.909 12.9538 58.067 33.0812Z" fill="#252A37"/>
<path d="M58.067 42.9956L65.4981 45.7458C66.4348 46.1794 66.9849 46.0351 67.757 45.8048C75.8556 43.3781 77.313 37.1489 79.8742 28.9567L86.9602 3.04932L79.2892 3.04932L72.0718 27.749C69.3822 36.9673 66.7232 44.708 58.067 42.9956Z" fill="#252A37"/>
<path d="M84.2779 33.0812L91.7978 33.0812C95.8128 14.8842 100.725 2.37451 100.725 2.37451L94.4146 2.37451C94.4146 2.37451 89.1199 12.9538 84.2779 33.0812Z" fill="#252A37"/>
<path d="M97.715 33.0475C100.924 17.4531 107.791 2.37451 107.791 2.37451L113.955 2.37451C113.955 2.37451 114.724 11.7016 118.086 21.5376C121.099 10.7933 125.079 2.384 125.079 2.384L131.371 2.384C131.371 2.384 126.178 14.8058 122.458 33.0744L114.885 33.0744C114.885 33.0744 111.348 25.2435 109.744 14.9982C109.744 14.9982 107.049 24.096 105.089 33.0527L97.715 33.0475Z" fill="#252A37"/>
<path d="M134.941 33.6064C131.948 33.6064 130.786 32.8012 130.786 32.8012L128.06 28.8559C128.06 28.8559 127.285 27.5403 127.285 24.1322C127.285 16.3786 134.087 2.37451 154.762 2.37451L156.954 8.84605C144.512 7.66306 131.694 17.7105 131.694 25.2058C131.694 26.9851 132.97 27.8897 135.141 27.8897C141.688 27.8897 147.819 21.7966 149.036 19.5159L155.93 22.1193C155.298 28.3195 151.991 33.9947 145.658 37.8527C144.817 38.4367 144.082 38.7009 142.733 38.1155L138.135 36.2505C142.817 35.5502 145.944 29.705 145.944 29.705C145.944 29.705 140.122 33.6064 134.941 33.6064Z" fill="#252A37"/>
<path d="M175.618 35.7483L170.29 28.0242C185.803 17.6737 190.632 8.57436 190.632 8.57436C190.632 8.57436 183.01 8.99419 176.07 12.8418L173.798 6.29303C173.798 6.29303 179.615 2.37451 189.617 2.37451C192.972 2.37451 195.228 3.01866 195.228 3.01866L197.312 9.16482C195.094 14.8452 187.159 24.3826 187.159 24.3826C190.873 23.4969 197.792 24.2862 199.958 27.0129L202.919 28.1689L202.678 30.4269L201.027 30.2336C201.027 30.2336 198.231 30.0457 196.538 30.0457C184.777 30.0457 175.618 35.7483 175.618 35.7483Z" fill="#252A37"/>
<path d="M230.704 34.5398L225.395 26.8726C241.101 15.8728 245.48 6.86968 245.48 6.86968C238.13 7.00507 231.271 11.3106 231.271 11.3106L228.928 4.68719C228.928 4.68719 234.649 1.02441 243.722 1.02441C246.564 1.02441 249.901 1.61274 249.901 1.61274L252.017 8.14121C247.604 16.5857 242.343 22.6785 242.343 22.6785C249.701 21.9986 253.955 24.3887 253.955 24.3887L255.749 26.3697C268.541 17.0389 272.761 9.48866 272.761 9.48866C272.761 9.48866 265.531 9.49276 258.724 12.9996L256.438 6.52807C256.438 6.52807 262.186 2.99813 271.799 2.99813C275.863 2.99813 277.826 3.66238 277.826 3.66238L279.999 10.0201C279.999 10.0201 277.584 15.2436 270.381 23.9148C270.381 23.9148 273.347 23.6274 275.767 23.6274C284.32 23.6274 285.462 25.3993 285.462 25.3993L294 31.6931C294 31.6931 289.436 29.6435 281.927 29.6435C281.927 29.6435 271.035 29.0849 257.635 36.2608L252.398 28.397C252.398 28.397 240.667 28.421 230.704 34.5398Z" fill="#252A37"/>
<path d="M216.664 2.37451C208.569 4.85109 199.187 13.1922 199.187 22.1497C199.187 24.4844 199.669 28.5021 203.816 33.0052L211.185 35.1023C219.949 33.4242 227.85 24.3618 227.85 14.8242C227.85 8.33317 223.485 4.68985 223.485 4.68985L216.664 2.37451ZM218.856 6.56867C218.856 6.56867 220.67 10.077 220.67 14.6723C220.67 25.5076 208.389 30.8038 208.389 30.8038C208.389 30.8038 206.273 27.2375 206.273 22.6432C206.273 11.9501 218.856 6.56867 218.856 6.56867Z" fill="#252A37"/>
</svg>
