<svg width="56" height="56" viewBox="0 0 56 56" fill="none" xmlns="http://www.w3.org/2000/svg">
<path fill-rule="evenodd" clip-rule="evenodd" d="M28.4091 6.81818C23.6645 6.81818 19.8182 10.6645 19.8182 15.4091C19.8182 20.1537 23.6645 24 28.4091 24C33.1537 24 37 20.1537 37 15.4091C37 10.6645 33.1537 6.81818 28.4091 6.81818ZM16 15.4091C16 8.55574 21.5557 3 28.4091 3C35.2624 3 40.8182 8.55574 40.8182 15.4091C40.8182 22.2624 35.2624 27.8182 28.4091 27.8182C21.5557 27.8182 16 22.2624 16 15.4091Z" fill="#040204"/>
<path fill-rule="evenodd" clip-rule="evenodd" d="M16.0158 34.3421C12.8384 38.4719 10.8182 44.2585 10.8182 50.7273C10.8182 51.7816 9.96345 52.6364 8.90909 52.6364C7.85473 52.6364 7 51.7816 7 50.7273C7 43.4888 9.25616 36.8663 12.9897 32.0138C16.7246 27.1594 22.0158 24 28 24C33.9842 24 39.2754 27.1594 43.0103 32.0138C46.7438 36.8663 49 43.4888 49 50.7273C49 51.7816 48.1453 52.6364 47.0909 52.6364C46.0365 52.6364 45.1818 51.7816 45.1818 50.7273C45.1818 44.2585 43.1616 38.4719 39.9842 34.3421C36.8082 30.2142 32.554 27.8182 28 27.8182C23.446 27.8182 19.1917 30.2142 16.0158 34.3421Z" fill="#040204"/>
</svg>
